<!-- Created with Inkscape (http://www.inkscape.org/) -->
<svg xmlns:inkscape="http://www.inkscape.org/namespaces/inkscape" xmlns:sodipodi="http://sodipodi.sourceforge.net/DTD/sodipodi-0.dtd" xmlns="http://www.w3.org/2000/svg" xmlns:svg="http://www.w3.org/2000/svg" width="42.450218" height="31.545008" viewBox="0 0 42.450218 31.545008" version="1.1" id="svg1" sodipodi:docname="earthkit-plots-light.svg" inkscape:version="1.3 (0e150ed, 2023-07-21)">
  <sodipodi:namedview id="namedview1" pagecolor="#ffffff" bordercolor="#000000" borderopacity="0.25" inkscape:showpageshadow="2" inkscape:pageopacity="0.0" inkscape:pagecheckerboard="0" inkscape:deskcolor="#d1d1d1" inkscape:document-units="mm" inkscape:zoom="2.8224349" inkscape:cx="193.44999" inkscape:cy="49.779713" inkscape:window-width="1936" inkscape:window-height="1218" inkscape:window-x="231" inkscape:window-y="138" inkscape:window-maximized="0" inkscape:current-layer="layer1"/>
  <defs id="defs1">
    <rect x="297.27747" y="98.696114" width="252.09129" height="79.670357" id="rect12"/>
    <rect x="297.27747" y="98.696114" width="252.09129" height="79.670357" id="rect22"/>
  </defs>
  <g inkscape:label="Layer 1" inkscape:groupmode="layer" id="layer1" transform="translate(-30.975453,-17.719192)" style="display:inline">
    </g>
  <g inkscape:groupmode="layer" id="layer2" inkscape:label="frame" transform="translate(-30.975453,-17.719192)" style="display:inline">
    <g id="g12" style="stroke:#fc9c9e;stroke-width:2;stroke-dasharray:none;stroke-opacity:1">
      <g id="g11" style="stroke:#fc9c9e;stroke-width:2;stroke-dasharray:none;stroke-opacity:1">
        <path d="m 58.642415,23.159827 a 14.233227,14.233227 0 0 1 0.02377,0.01964 14.233227,14.233227 0 0 1 0.535367,0.483174 14.233227,14.233227 0 0 1 0.50953,0.510047 14.233227,14.233227 0 0 1 0.483691,0.534851 14.233227,14.233227 0 0 1 0.455787,0.559139 14.233227,14.233227 0 0 1 0.426847,0.58136 14.233227,14.233227 0 0 1 0.396875,0.60203 14.233227,14.233227 0 0 1 0.365869,0.621151 14.233227,14.233227 0 0 1 0.33383,0.639237 14.233227,14.233227 0 0 1 0.300757,0.655257 14.233227,14.233227 0 0 1 0.267684,0.669727 14.233227,14.233227 0 0 1 0.23306,0.682646 14.233227,14.233227 0 0 1 0.198438,0.692981 14.233227,14.233227 0 0 1 0.163297,0.702799 14.233227,14.233227 0 0 1 0.127124,0.709518 14.233227,14.233227 0 0 1 0.09095,0.715718 14.233227,14.233227 0 0 1 0.05478,0.718819 14.233227,14.233227 0 0 1 0.01809,0.720887 14.233227,14.233227 0 0 1 -0.144694,2.025716 14.233227,14.233227 0 0 1 -0.431499,1.984375 14.233227,14.233227 0 0 1 -0.710034,1.902726 14.233227,14.233227 0 0 1 -0.973067,1.78232 14.233227,14.233227 0 0 1 -1.21698,1.625741 14.233227,14.233227 0 0 1 -1.436088,1.436088 14.233227,14.233227 0 0 1 -0.187069,0.140043 l 2.83962,3.388423 a 18.639271,18.639271 0 0 0 1.67535,-1.591634 18.639271,18.639271 0 0 0 1.46606,-1.785937 18.639271,18.639271 0 0 0 1.233517,-1.954403 18.639271,18.639271 0 0 0 0.981852,-2.091345 18.639271,18.639271 0 0 0 0.716235,-2.197282 18.639271,18.639271 0 0 0 0.438217,-2.269112 18.639271,18.639271 0 0 0 0.154512,-2.305286 18.639271,18.639271 0 0 0 -0.0026,-0.404626 18.639271,18.639271 0 0 0 -0.01085,-0.404627 18.639271,18.639271 0 0 0 -0.02015,-0.404109 18.639271,18.639271 0 0 0 -0.02894,-0.403593 18.639271,18.639271 0 0 0 -0.03721,-0.403076 18.639271,18.639271 0 0 0 -0.04651,-0.402043 18.639271,18.639271 0 0 0 -0.05478,-0.400492 18.639271,18.639271 0 0 0 -0.06356,-0.399976 18.639271,18.639271 0 0 0 -0.07235,-0.397909 18.639271,18.639271 0 0 0 -0.08113,-0.396358 18.639271,18.639271 0 0 0 -0.0894,-0.394808 18.639271,18.639271 0 0 0 -0.09819,-0.392741 18.639271,18.639271 0 0 0 -0.106453,-0.390157 18.639271,18.639271 0 0 0 -0.115239,-0.38809 18.639271,18.639271 0 0 0 -0.123506,-0.385506 18.639271,18.639271 0 0 0 -0.131258,-0.382405 18.639271,18.639271 0 0 0 -0.140043,-0.379822 18.639271,18.639271 0 0 0 -0.148312,-0.376205 18.639271,18.639271 0 0 0 -0.156579,-0.373104 18.639271,18.639271 0 0 0 -0.164331,-0.370003 18.639271,18.639271 0 0 0 -0.1726,-0.365869 A 18.639271,18.639271 0 0 0 65.989752,25.49147 18.639271,18.639271 0 0 0 65.801668,25.13335 18.639271,18.639271 0 0 0 65.605815,24.778849 18.639271,18.639271 0 0 0 65.402209,24.429517 18.639271,18.639271 0 0 0 65.19137,24.084318 18.639271,18.639271 0 0 0 64.972778,23.74377 18.639271,18.639271 0 0 0 64.746952,23.407874 18.639271,18.639271 0 0 0 64.513892,23.077144 18.639271,18.639271 0 0 0 64.273596,22.751583 18.639271,18.639271 0 0 0 64.026583,22.431189 18.639271,18.639271 0 0 0 63.772335,22.115963 18.639271,18.639271 0 0 0 63.511369,21.806938 18.639271,18.639271 0 0 0 63.243685,21.50308 18.639271,18.639271 0 0 0 62.9698,21.205424 18.639271,18.639271 0 0 0 62.689197,20.913969 18.639271,18.639271 0 0 0 62.402393,20.628198 18.639271,18.639271 0 0 0 62.109387,20.349146 18.639271,18.639271 0 0 0 61.810697,20.076294 18.639271,18.639271 0 0 0 61.505806,19.81016 Z" style="fill:none;stroke:#fc9c9e;stroke-width:2;stroke-linecap:square;stroke-linejoin:round;stroke-dasharray:none;stroke-opacity:1" id="path8"/>
        <path d="m 61.600374,26.902234 a 14.107161,14.107161 0 0 1 0.273369,0.483691 14.107161,14.107161 0 0 1 0.339514,0.684713 14.107161,14.107161 0 0 1 0.30179,0.701766 14.107161,14.107161 0 0 1 0.26355,0.717269 14.107161,14.107161 0 0 1 0.224276,0.730188 14.107161,14.107161 0 0 1 0.184485,0.741557 14.107161,14.107161 0 0 1 0.144177,0.750341 14.107161,14.107161 0 0 1 0.102836,0.75706 14.107161,14.107161 0 0 1 0.06201,0.761194 14.107161,14.107161 0 0 1 0.02067,0.763778 14.107161,14.107161 0 0 1 -0.173633,2.2071 14.107161,14.107161 0 0 1 -0.516764,2.152324 14.107161,14.107161 0 0 1 -0.846977,2.045353 14.107161,14.107161 0 0 1 -0.199987,0.326595 l 8.019665,4.188891 a 23.109167,23.109167 0 0 0 0.253731,-0.499711 23.109167,23.109167 0 0 0 0.240813,-0.505395 23.109167,23.109167 0 0 0 0.228926,-0.511597 23.109167,23.109167 0 0 0 0.216524,-0.516764 23.109167,23.109167 0 0 0 0.203606,-0.521932 23.109167,23.109167 0 0 0 0.191202,-0.526583 23.109167,23.109167 0 0 0 0.178284,-0.531234 23.109167,23.109167 0 0 0 0.165365,-0.535368 23.109167,23.109167 0 0 0 0.152445,-0.538985 23.109167,23.109167 0 0 0 0.13901,-0.543119 23.109167,23.109167 0 0 0 0.12609,-0.545703 23.109167,23.109167 0 0 0 0.112655,-0.548804 23.109167,23.109167 0 0 0 0.09922,-0.551387 23.109167,23.109167 0 0 0 0.08578,-0.553972 23.109167,23.109167 0 0 0 0.07286,-0.555521 23.109167,23.109167 0 0 0 0.05891,-0.557072 23.109167,23.109167 0 0 0 0.04548,-0.558106 23.109167,23.109167 0 0 0 0.03204,-0.559656 23.109167,23.109167 0 0 0 0.0186,-0.560172 23.109167,23.109167 0 0 0 0.0046,-0.560173 23.109167,23.109167 0 0 0 -0.0088,-0.560172 23.109167,23.109167 0 0 0 -0.02222,-0.559656 23.109167,23.109167 0 0 0 -0.03617,-0.559139 23.109167,23.109167 0 0 0 -0.04961,-0.558105 23.109167,23.109167 0 0 0 -0.06253,-0.556556 23.109167,23.109167 0 0 0 -0.07648,-0.555521 23.109167,23.109167 0 0 0 -0.08992,-0.552938 23.109167,23.109167 0 0 0 -0.103353,-0.550354 23.109167,23.109167 0 0 0 -0.116789,-0.548287 23.109167,23.109167 0 0 0 -0.129707,-0.545186 23.109167,23.109167 0 0 0 -0.143144,-0.541569 23.109167,23.109167 0 0 0 -0.156063,-0.537952 23.109167,23.109167 0 0 0 -0.168982,-0.534334 23.109167,23.109167 0 0 0 -0.181901,-0.529684 23.109167,23.109167 0 0 0 -0.19482,-0.525549 23.109167,23.109167 0 0 0 -0.207739,-0.520382 23.109167,23.109167 0 0 0 -0.220142,-0.515214 23.109167,23.109167 0 0 0 -0.232544,-0.510046 23.109167,23.109167 0 0 0 -0.244429,-0.503845 23.109167,23.109167 0 0 0 -0.256832,-0.497644 23.109167,23.109167 0 0 0 -0.269234,-0.49196 23.109167,23.109167 0 0 0 -0.280603,-0.484725 z" style="fill:none;fill-opacity:0;stroke:#fc9c9e;stroke-width:2;stroke-linecap:square;stroke-linejoin:round;stroke-dasharray:none;stroke-opacity:1" id="path13"/>
        <path style="fill:none;stroke:#fc9c9e;stroke-width:2;stroke-linecap:square;stroke-linejoin:round;stroke-dasharray:none;stroke-opacity:1" d="m 63.395655,35.866525 8.494705,1.730404" id="path10"/>
        <path style="fill:none;stroke:#fc9c9e;stroke-width:2;stroke-linecap:square;stroke-linejoin:round;stroke-dasharray:none;stroke-opacity:1" d="m 63.395655,31.304555 8.337397,-1.573093" id="path11"/>
      </g>
      <path style="fill:none;stroke:#fc9c9e;stroke-width:2;stroke-linecap:round;stroke-linejoin:round;stroke-dasharray:none;stroke-opacity:1" id="path12" sodipodi:type="arc" sodipodi:cx="49.237816" sodipodi:cy="33.978817" sodipodi:rx="17.230442" sodipodi:ry="17.230442" sodipodi:start="4.0660296" sodipodi:end="4.2294201" sodipodi:arc-type="arc" d="m 38.860193,20.224069 a 17.230442,17.230442 0 0 1 2.375624,-1.504877" sodipodi:open="true"/>
      <path style="fill:none;stroke:#fc9c9e;stroke-width:2;stroke-linecap:round;stroke-linejoin:round;stroke-dasharray:none;stroke-opacity:1" id="path12-1" sodipodi:type="arc" sodipodi:cx="49.205894" sodipodi:cy="34.057484" sodipodi:rx="17.230442" sodipodi:ry="17.230442" sodipodi:start="3.0382093" sodipodi:end="3.3111615" sodipodi:arc-type="arc" d="m 32.067451,35.835653 a 17.230442,17.230442 0 0 1 0.155127,-4.685934" sodipodi:open="true"/>
      <path style="fill:none;stroke:#fc9c9e;stroke-width:2;stroke-linecap:round;stroke-linejoin:round;stroke-dasharray:none;stroke-opacity:1" id="path12-18" sodipodi:type="arc" sodipodi:cx="49.193039" sodipodi:cy="33.944946" sodipodi:rx="17.230442" sodipodi:ry="17.230442" sodipodi:start="2.6616567" sodipodi:end="2.7961599" sodipodi:arc-type="arc" d="M 33.909215,41.900627 A 17.230442,17.230442 0 0 1 32.980416,39.779241" sodipodi:open="true"/>
      <g id="g1" style="stroke:#fc9c9e;stroke-width:2;stroke-dasharray:none;stroke-opacity:1"/>
    </g>
  </g>
  <g inkscape:groupmode="layer" id="g22" inkscape:label="globe" transform="translate(-30.975453,-17.719192)" style="display:inline">
    <path id="path20" style="fill:none;fill-opacity:0;stroke:#f94144;stroke-width:2.2;stroke-linecap:square;stroke-linejoin:round;stroke-dasharray:none;stroke-opacity:1" d="M 63.528906,33.979225 A 14.233227,14.233227 0 0 1 49.29568,48.212452 14.233227,14.233227 0 0 1 35.062453,33.979225 14.233227,14.233227 0 0 1 49.29568,19.745998 14.233227,14.233227 0 0 1 63.528906,33.979225 Z"/>
    <path style="fill:none;stroke:#f94144;stroke-width:2.2;stroke-dasharray:none;stroke-opacity:1" d="m 35.503933,30.031486 c 0,0 5.0842,-1.488895 6.37445,-2.532316 1.713654,-1.385826 2.095709,-6.112486 2.095709,-6.112486" id="path22" sodipodi:nodetypes="csc"/>
    <path style="fill:none;stroke:#f94144;stroke-width:2.2;stroke-dasharray:none;stroke-opacity:1" d="m 36.639108,39.112893 c 0,0 3.730861,-4.188209 6.723735,-7.073019 1.583005,-1.525848 2.751759,-4.328307 4.264184,-5.568211 2.432867,-1.994493 7.436861,-5.084979 7.436861,-5.084979" id="path23" sodipodi:nodetypes="cssc"/>
    <path style="fill:none;stroke:#f94144;stroke-width:2.2;stroke-dasharray:none;stroke-opacity:1" d="m 39.171423,43.915561 c 0,0 2.238761,-5.858998 5.239275,-8.033553 2.145404,-1.554833 5.712304,-5.150334 7.445995,-7.153977 1.945638,-2.248592 7.049329,-5.070996 7.049329,-5.070996" id="path24" sodipodi:nodetypes="cssc"/>
    <path style="fill:none;stroke:#f94144;stroke-width:2.2;stroke-dasharray:none;stroke-opacity:1" d="m 60.652447,42.343778 c -3.990621,2.128377 -8.527452,-1.363937 -4.540704,-3.842133 0.94,-0.584312 4.047673,-0.864237 5.588742,0.605073" id="path25" sodipodi:nodetypes="csc"/>
    <path style="fill:none;stroke:#f94144;stroke-width:2.2;stroke-dasharray:none;stroke-opacity:1" d="M 51.920324,47.583052 C 41.858566,44.23054 49.089043,27.458632 63.359406,32.301838" id="path26" sodipodi:nodetypes="cc"/>
    <path style="fill:none;stroke:#f94144;stroke-width:2.2;stroke-dasharray:none;stroke-opacity:1" d="m 57.334241,45.749306 c 0,0 -8.423763,-1.491443 -5.413916,-7.247664 1.052701,-2.013252 3.605673,-3.629242 6.107503,-3.590493 3.591281,0.05562 5.069616,1.582107 5.069616,1.582107" id="path27" sodipodi:nodetypes="cssc"/>
  </g>
</svg>
