<?xml version="1.0" encoding="UTF-8" standalone="no"?>
<svg
   width="24"
   height="24"
   viewBox="0 0 24 24"
   fill="currentColor"
   class="icon icon-tabler icons-tabler-filled icon-tabler-stack-2"
   version="1.1"
   id="svg2"
   sodipodi:docname="grib.svg"
   inkscape:version="1.3 (0e150ed, 2023-07-21)"
   xmlns:inkscape="http://www.inkscape.org/namespaces/inkscape"
   xmlns:sodipodi="http://sodipodi.sourceforge.net/DTD/sodipodi-0.dtd"
   xmlns="http://www.w3.org/2000/svg"
   xmlns:svg="http://www.w3.org/2000/svg">
  <defs
     id="defs2" />
  <sodipodi:namedview
     id="namedview2"
     pagecolor="#ffffff"
     bordercolor="#000000"
     borderopacity="0.25"
     inkscape:showpageshadow="2"
     inkscape:pageopacity="0.0"
     inkscape:pagecheckerboard="0"
     inkscape:deskcolor="#d1d1d1"
     inkscape:zoom="9.8333333"
     inkscape:cx="12"
     inkscape:cy="11.949153"
     inkscape:window-width="1504"
     inkscape:window-height="816"
     inkscape:window-x="671"
     inkscape:window-y="419"
     inkscape:window-maximized="0"
     inkscape:current-layer="svg2" />
  <path
     stroke="none"
     d="M0 0h24v24H0z"
     fill="none"
     id="path1" />
  <path
     d="M20.894 15.553a1 1 0 0 1 -.447 1.341l-8 4a1 1 0 0 1 -.894 0l-8 -4a1 1 0 0 1 .894 -1.788l7.553 3.774l7.554 -3.775a1 1 0 0 1 1.341 .447m0 -4a1 1 0 0 1 -.447 1.341l-8 4a1 1 0 0 1 -.894 0l-8 -4a1 1 0 0 1 .894 -1.788l7.552 3.775l7.554 -3.775a1 1 0 0 1 1.341 .447m-8.887 -8.552q .056 0 .111 .007l.111 .02l.086 .024l.012 .006l.012 .002l.029 .014l.05 .019l.016 .009l.012 .005l8 4a1 1 0 0 1 0 1.788l-8 4a1 1 0 0 1 -.894 0l-8 -4a1 1 0 0 1 0 -1.788l8 -4l.011 -.005l.018 -.01l.078 -.032l.011 -.002l.013 -.006l.086 -.024l.11 -.02l.056 -.005z"
     id="path2"
     style="fill:#f94144;fill-opacity:1" />
</svg>
